<?xml version="1.0" encoding="UTF-8"?>
<svg xmlns="http://www.w3.org/2000/svg" xmlns:xlink="http://www.w3.org/1999/xlink" viewBox="0 0 50 50" width="50px" height="50px">
<g id="surface76606462">
<rect x="0" y="0" width="50" height="50" style="fill:rgb(35.294119%,15.686275%,49.019608%);fill-opacity:1;stroke:none;"/>
<path style=" stroke:none;fill-rule:nonzero;fill:rgb(96.470588%,96.078432%,96.078432%);fill-opacity:1;" d="M 11.335938 8.84375 C 10.453125 8.84375 9.738281 9.558594 9.738281 10.445312 C 9.738281 11.328125 10.453125 12.042969 11.335938 12.042969 L 12.9375 12.042969 C 13.820312 12.042969 14.539062 11.328125 14.539062 10.445312 C 14.539062 9.558594 13.820312 8.84375 12.9375 8.84375 Z M 17.738281 8.84375 C 16.863281 8.84375 16.136719 9.566406 16.136719 10.445312 C 16.136719 11.320312 16.863281 12.042969 17.738281 12.042969 L 19.203125 12.042969 C 20.101562 12.042969 20.890625 12.714844 20.9375 13.554688 C 20.984375 14.496094 20.257812 15.242188 19.335938 15.242188 L 12.136719 15.242188 C 11.261719 15.242188 10.539062 15.96875 10.539062 16.84375 C 10.539062 17.71875 11.261719 18.445312 12.136719 18.445312 L 13.601562 18.445312 C 14.5 18.445312 15.292969 19.113281 15.335938 19.957031 C 15.386719 20.894531 14.660156 21.644531 13.738281 21.644531 L 12.136719 21.644531 C 11.261719 21.644531 10.539062 22.367188 10.539062 23.242188 C 10.539062 24.121094 11.261719 24.84375 12.136719 24.84375 L 13.601562 24.84375 C 14.5 24.84375 15.292969 25.515625 15.335938 26.355469 C 15.386719 27.296875 14.660156 28.042969 13.738281 28.042969 L 12.136719 28.042969 C 11.261719 28.042969 10.539062 28.769531 10.539062 29.644531 C 10.539062 30.519531 11.261719 31.242188 12.136719 31.242188 L 17.601562 31.242188 C 18.5 31.242188 19.292969 31.914062 19.335938 32.757812 C 19.386719 33.695312 18.660156 34.445312 17.738281 34.445312 L 15.335938 34.445312 C 14.464844 34.445312 13.738281 35.167969 13.738281 36.042969 C 13.738281 36.917969 14.464844 37.644531 15.335938 37.644531 L 22.9375 37.644531 C 23.609375 37.644531 24.136719 38.171875 24.136719 38.84375 L 24.136719 39.644531 L 24.472656 39.644531 C 24.796875 40.308594 25.351562 40.84375 26.136719 40.84375 C 26.699219 40.84375 27.242188 40.667969 27.695312 40.339844 L 27.695312 40.34375 C 31.464844 37.632812 34.96875 35.078125 37.453125 32.117188 C 39.933594 29.15625 41.363281 25.714844 40.824219 21.515625 C 39.882812 14.199219 33.445312 8.84375 26.09375 8.84375 Z M 19.203125 10.445312 L 26.09375 10.445312 C 32.671875 10.445312 38.402344 15.222656 39.238281 21.71875 C 39.722656 25.464844 38.515625 28.351562 36.226562 31.089844 C 33.933594 33.824219 30.527344 36.335938 26.761719 39.042969 L 26.757812 39.042969 C 26.578125 39.171875 26.359375 39.242188 26.136719 39.242188 C 25.90625 39.242188 25.738281 39.074219 25.738281 38.84375 C 25.738281 37.308594 24.472656 36.042969 22.9375 36.042969 L 17.738281 36.042969 C 19.550781 36.042969 21.027344 34.503906 20.933594 32.671875 C 20.839844 30.917969 19.300781 29.644531 17.601562 29.644531 L 13.738281 29.644531 C 15.550781 29.644531 17.027344 28.101562 16.933594 26.273438 C 16.839844 24.519531 15.300781 23.242188 13.601562 23.242188 L 13.738281 23.242188 C 15.550781 23.242188 17.027344 21.703125 16.933594 19.875 C 16.839844 18.117188 15.300781 16.84375 13.601562 16.84375 L 19.335938 16.84375 C 21.152344 16.84375 22.628906 15.304688 22.53125 13.472656 C 22.441406 11.71875 20.898438 10.445312 19.203125 10.445312 Z M 5.738281 15.242188 C 4.851562 15.242188 4.136719 15.960938 4.136719 16.84375 C 4.136719 17.726562 4.851562 18.445312 5.738281 18.445312 L 7.335938 18.445312 C 8.222656 18.445312 8.9375 17.726562 8.9375 16.84375 C 8.9375 15.960938 8.222656 15.242188 7.335938 15.242188 Z M 24.136719 17.644531 C 23.261719 17.644531 22.539062 18.371094 22.539062 19.242188 L 22.539062 27.242188 C 22.539062 28.117188 23.261719 28.84375 24.136719 28.84375 L 27.335938 28.84375 C 30.3125 28.84375 32.707031 26.484375 32.875 23.546875 C 32.917969 23.453125 32.9375 23.347656 32.9375 23.242188 C 32.9375 20.160156 30.421875 17.644531 27.335938 17.644531 Z M 24.136719 19.242188 L 27.335938 19.242188 C 29.554688 19.242188 31.335938 21.023438 31.335938 23.242188 C 31.335938 25.460938 29.554688 27.242188 27.335938 27.242188 L 24.136719 27.242188 Z M 2.539062 21.644531 C 1.652344 21.644531 0.9375 22.359375 0.9375 23.242188 C 0.9375 24.128906 1.652344 24.84375 2.539062 24.84375 L 7.335938 24.84375 C 8.222656 24.84375 8.9375 24.128906 8.9375 23.242188 C 8.9375 22.359375 8.222656 21.644531 7.335938 21.644531 Z M 5.738281 28.042969 C 4.851562 28.042969 4.136719 28.757812 4.136719 29.644531 C 4.136719 30.527344 4.851562 31.242188 5.738281 31.242188 L 7.335938 31.242188 C 8.222656 31.242188 8.9375 30.527344 8.9375 29.644531 C 8.9375 28.757812 8.222656 28.042969 7.335938 28.042969 Z M 5.738281 28.042969 "/>
</g>
</svg>
